<svg width="33" height="33" viewBox="0 0 33 33" fill="none" xmlns="http://www.w3.org/2000/svg">
<g clip-path="url(#clip0_760_6)">
<path d="M23.0938 13.875H29.0938V7.875" stroke="white" stroke-width="1.5" stroke-linecap="round" stroke-linejoin="round"/>
<path d="M23.6437 24.875C22.0713 26.3588 20.0964 27.3463 17.966 27.7141C15.8355 28.082 13.6438 27.8138 11.6649 26.9432C9.68591 26.0726 8.00738 24.6381 6.83901 22.819C5.67064 20.9999 5.06424 18.8768 5.09558 16.7151C5.12692 14.5533 5.79461 12.4487 7.01522 10.6642C8.23583 8.87972 9.95524 7.4945 11.9586 6.68162C13.962 5.86875 16.1605 5.66426 18.2794 6.09371C20.3983 6.52315 22.3437 7.5675 23.8725 9.09624L29.0938 13.875" stroke="white" stroke-width="1.5" stroke-linecap="round" stroke-linejoin="round"/>
</g>
<defs>
<clipPath id="clip0_760_6">
<rect width="32" height="32" fill="white" transform="translate(0.09375 0.875)"/>
</clipPath>
</defs>
</svg>
